# AST/ASF file generated using VICON BodyLanguage
# -----------------------------------------------
:version 1.10
:name VICON
:units
  mass 1.0
  length 0.45
  angle deg
:documentation
   .ast/.asf automatically generated from VICON data using
   VICON BodyBuilder and BodyLanguage model FoxedUp or BRILLIANT.MOD
:root
   order TX TY TZ RX RY RZ
   axis XYZ
   position 0 0 0  
   orientation 0 0 0 
:bonedata
  begin
     id 1 
     name lhipjoint
     direction 0.734343 -0.627749 0.258209 
     length 2.5437 
     axis 0 0 0  XYZ
  end
  begin
     id 2 
     name lfemur
     direction 0.34202 -0.939693 0  
     length 6.7391  
     axis 0 0 20  XYZ
    dof rx ry rz
    limits (-160.0 20.0)
           (-70.0 70.0)
           (-60.0 70.0)
  end
  begin
     id 3 
     name ltibia
     direction 0.34202 -0.939693 0   
     length 7.21536   
     axis 0 0 20   XYZ
    dof rx
    limits (-10.0 170.0)
  end
  begin
     id 4 
     name lfoot
     direction 0.0489572 -0.134509 0.989702   
     length 1.61313   
     axis -90 7.62852e-016 20   XYZ
    dof rx rz
    limits (-45.0 90.0)
           (-70.0 20.0)
  end
  begin
     id 5 
     name ltoes
     direction 1.53451e-011 -4.21692e-011 1   
     length 0.823104   
     axis -90 7.62852e-016 20   XYZ
    dof rx
    limits (-90.0 20.0)
  end
  begin
     id 6 
     name rhipjoint
     direction -0.746398 -0.615468 0.253157   
     length 2.59446  
     axis 0 0 0  XYZ 
  end
  begin
     id 7 
     name rfemur
     direction -0.34202 -0.939693 0   
     length 6.7075   
     axis 0 0 -20   XYZ
    dof rx ry rz
    limits (-160.0 20.0)
           (-70.0 70.0)
           (-70.0 60.0)
  end
  begin
     id 8 
     name rtibia
     direction -0.34202 -0.939693 0   
     length 7.27262   
     axis 0 0 -20   XYZ
    dof rx
    limits (-10.0 170.0)
 end
 begin
     id 9 
     name rfoot
     direction -0.0455203 -0.125066 0.991104   
     length 1.91095  
     axis -90 -7.62852e-016 -20   XYZ
    dof rx rz
    limits (-45.0 90.0)
           (-20.0 70.0)
  end
  begin
     id 10 
     name rtoes
     direction -1.53601e-011 -4.21913e-011 1   
     length 0.969037   
     axis -90 -7.62852e-016 -20   XYZ
    dof rx
    limits (-90.0 20.0)
  end
  begin
     id 11 
     name lowerback
     direction 0.0181546 0.999122 -0.0377542   
     length 1.99916   
     axis 0 0 0   XYZ
    dof rx ry rz
    limits (-20.0 45.0)
           (-30.0 30.0)
           (-30.0 30.0)
  end
  begin
     id 12 
     name upperback
     direction 0.0203486 0.99589 0.0882534   
     length 1.951   
     axis 0 0 0   XYZ
    dof rx ry rz
    limits (-20.0 45.0)
           (-30.0 30.0)
           (-30.0 30.0)
  end
  begin
     id 13 
     name thorax
     direction 0.0131685 0.994241 0.106355   
     length 1.97461   
     axis 0 0 0   XYZ
    dof rx ry rz
    limits (-20.0 45.0)
           (-30.0 30.0)
           (-30.0 30.0)
  end
  begin
     id 14 
     name lowerneck
     direction -0.0281395 0.999325 0.023617   
     length 1.7959   
     axis 0 0 0   XYZ
    dof rx ry rz
    limits (-20.0 45.0)
           (-30.0 30.0)
           (-30.0 30.0)
  end
  begin
     id 15 
     name upperneck
     direction 0.0288721 0.991984 -0.123019   
     length 1.79917   
     axis 0 0 0   XYZ
    dof rx ry rz
    limits (-20.0 45.0)
           (-30.0 30.0)
           (-30.0 30.0)
  end
  begin
     id 16
     name head
     direction 0.0133797 0.998944 -0.0439492  
     length 1.80902  
     axis 0 0 0   XYZ
    dof rx ry rz
    limits (-20.0 45.0)
           (-30.0 30.0)
           (-30.0 30.0)
  end
  begin
     id 17 
     name lclavicle
     direction 0.919195 0.377107 0.113449  
     length 3.17815  
     axis 0 0 0   XYZ
    dof ry rz
    limits (-20.0 10.0)
           (0.0 20.0)
  end
  begin
     id 18 
     name lhumerus
     direction 1 -4.48959e-011 2.13129e-027   
     length 4.84137   
     axis 180 -30 -90   XYZ
    dof rx ry rz
    limits (-60.0 90.0)
           (-90.0 90.0)
           (-90.0 90.0)
  end
  begin
     id 19
     name lradius
     direction 1 -4.48957e-011 -6.30627e-028   
     length 3.2452   
     axis 180 -30 -90   XYZ
    dof rx
    limits (-10.0 170.0)
  end
  begin
     id 20
     name lwrist
     direction 1 -4.4901e-011 9.13299e-027   
     length 1.6226   
     axis -6.84618e-015 90 90   XYZ
    dof ry
    limits (-180.0 0.0)
 end
  begin
     id 21 
     name lhand
     direction 1 -4.48816e-011 1.82293e-026   
     length 0.521221   
     axis -1.16502e-014 90 90   XYZ
    dof rx rz
    limits (-90.0 90.0)
           (-45.0 45.0)
  end
  begin
     id 22 
     name lfingers
     direction 1 -4.49108e-011 3.65687e-026   
     length 0.420221   
     axis -2.33008e-014 90 90   XYZ
    dof rx
    limits (0.0 90.0)
  end
  begin
     id 23
     name lthumb
     direction 0.707107 -6.34943e-011 0.707107   
     length 0.603356   
     axis -90 45 5.69224e-014   XYZ
    dof rx rz
    limits (-45.0 45.0)
           (-45.0 45.0)
  end
  begin
     id 24 
     name rclavicle
     direction -0.90847 0.38596 0.160368   
     length 3.12973  
     axis 0 0 0   XYZ 
    dof ry rz
    limits (-10.0 20.0)
           (-20.0 0.0)
  end
  begin
     id 25 
     name rhumerus
     direction -1 -4.48974e-011 4.47268e-028  
     length 4.72284   
     axis 180 30 90   XYZ
    dof rx ry rz
    limits (-90.0 60.0)
           (-90.0 90.0)
           (-90.0 90.0)
  end
  begin
     id 26 
     name rradius
     direction -1 -4.48969e-011 3.43203e-027   
     length 3.23459   
     axis 180 30 90   XYZ
    dof rx
    limits (-10.0 170.0)
  end
  begin
     id 27 
     name rwrist
     direction -1 -4.48969e-011 9.12911e-027   
     length 1.6173   
     axis -6.84618e-015 -90 -90   XYZ
    dof ry
    limits (-180.0 0.0)
  end
  begin
     id 28
     name rhand
     direction -1 -4.49194e-011 1.83006e-026   
     length 0.307416   
     axis -1.16502e-014 -90 -90   XYZ
    dof rx rz
    limits (-90.0 90.0)
           (-45.0 45.0)
  end
  begin
     id 29
     name rfingers
     direction -1 -4.48423e-011 3.63103e-026   
     length 0.247847   
     axis -2.33008e-014 -90 -90   XYZ
    dof rx
    limits (0.0 90.0)
  end
  begin
     id 30
     name rthumb
     direction -0.707107 -6.34802e-011 0.707107   
     length 0.35586   
     axis -90 -45 -5.69224e-014   XYZ
    dof rx rz
    limits (-45.0 45.0)
           (-45.0 45.0)
  end
:hierarchy
  begin
    root lhipjoint rhipjoint lowerback
    lhipjoint lfemur
    lfemur ltibia
    ltibia lfoot
    lfoot ltoes
    rhipjoint rfemur
    rfemur rtibia
    rtibia rfoot
    rfoot rtoes
    lowerback upperback
    upperback thorax
    thorax lowerneck lclavicle rclavicle
    lowerneck upperneck
    upperneck head
    lclavicle lhumerus
    lhumerus lradius
    lradius lwrist
    lwrist lhand lthumb
    lhand lfingers
    rclavicle rhumerus
    rhumerus rradius
    rradius rwrist
    rwrist rhand rthumb
    rhand rfingers
  end

#!OML:ASF H:\Terrain\Patient Classification 1\Animal1\Tuesday\Animal1.ASF
:FULLY-SPECIFIED
:DEGREES
794
root -3.49129 14.9683 -6.12538 17.1276 10.2201 -0.753008
lowerback 32.8875 -1.47094 0.320879
upperback 4.90894 -1.76009 -0.536212
thorax -11.4996 -0.789693 -0.0668933
lowerneck -12.5183 0.503022 -4.73976
upperneck -23.2094 2.5909 8.20253
head -5.15649 1.34246 3.41636
rclavicle 4.53229e-014 -2.18663e-014
rhumerus -28.3856 -10.3454 -69.4145
rradius 79.4962
rwrist 6.27709
rhand -23.5545 26.2428
rfingers 7.12502
rthumb 2.90757 -3.71716
lclavicle 4.53229e-014 -2.18663e-014
lhumerus -12.195 0.0939938 88.0608
lradius 91.1616
lwrist -44.815
lhand 3.74048 40.7409
lfingers 7.12502
lthumb 29.1679 68.4756
rfemur -57.2963 14.8006 19.6656
rtibia 59.3864
rfoot -12.8554 -15.0804
rtoes -4.39768
lfemur -60.6494 -19.5687 -1.44113
ltibia 81.3624
lfoot 22.8032 -12.7776
ltoes 30.2355
795
root -3.49275 14.9771 -6.12058 17.0499 10.3315 -0.886273
lowerback 32.9194 -1.55279 0.524213
upperback 4.9345 -1.79215 -0.534343
thorax -11.4892 -0.811146 -0.161333
lowerneck -12.3437 0.539448 -4.74806
upperneck -23.3592 2.66302 8.29246
head -5.23585 1.3691 3.44707
rclavicle 7.15625e-015 -3.97569e-015
rhumerus -28.3197 -10.3473 -69.4763
rradius 79.5493
rwrist 5.9844
rhand -23.3986 25.95
rfingers 7.12502
rthumb 3.05816 -4.00784
lclavicle 7.15625e-015 -3.97569e-015
lhumerus -12.2946 0.0197607 87.9018
lradius 91.2934
lwrist -44.8606
lhand 3.94248 41.1276
lfingers 7.12502
lthumb 29.3608 68.8288
rfemur -57.0977 14.697 19.8928
rtibia 59.229
rfoot -12.8363 -15.0373
rtoes -4.40474
lfemur -60.6163 -19.6265 -1.22939
ltibia 81.2704
lfoot 23.0977 -12.7078
ltoes 31.0745
796
root -3.49518 14.9865 -6.11592 16.8916 10.5131 -1.12668
lowerback 33.0568 -1.40809 1.14924
upperback 4.50007 -1.36155 -0.269277
thorax -12.0354 -0.63961 -0.374209
lowerneck -10.443 0.208534 -5.87483
upperneck -23.8549 2.29157 8.61826
head -5.66827 1.21255 3.74688
rclavicle -2.70347e-014 -5.36719e-015
rhumerus -29.7526 -10.5711 -68.3593
rradius 79.9357
rwrist 5.6707
rhand -23.2014 25.8424
rfingers 7.12502
rthumb 3.24862 -4.11259
lclavicle -2.70347e-014 -5.36719e-015
lhumerus -13.3548 -0.76647 88.6472
lradius 91.4514
lwrist -44.8487
lhand 3.79016 41.3296
lfingers 7.12502
lthumb 29.2153 69.0561
rfemur -56.7984 14.5649 20.2919
rtibia 59.0738
rfoot -12.7489 -15.0757
rtoes -5.096
lfemur -60.6071 -19.6804 -0.951357
ltibia 81.1729
lfoot 23.5036 -12.677
ltoes 31.8704
797
root -3.49575 14.9953 -6.10918 16.8155 10.6175 -1.27637
lowerback 33.0635 -1.67684 1.06654
upperback 5.00432 -1.73766 -0.38123
thorax -11.476 -0.803269 -0.308343
lowerneck -12.5138 0.466053 -5.06063
upperneck -23.1244 2.61128 8.49428
head -5.13366 1.36656 3.56542
rclavicle 1.35174e-014 3.97569e-016
rhumerus -28.3755 -10.5565 -69.3463
rradius 79.7258
rwrist 6.0608
rhand -23.2366 26.0676
rfingers 7.12502
rthumb 3.21466 -3.88788
lclavicle 1.35174e-014 3.97569e-016
lhumerus -12.3986 -0.202022 87.833
lradius 91.4774
lwrist -44.6899
lhand 3.62466 41.2463
lfingers 7.12502
lthumb 29.0573 69.0002
rfemur -56.5937 14.4526 20.5377
rtibia 58.9567
rfoot -12.7679 -15.0765
rtoes -5.71678
lfemur -60.5988 -19.7469 -0.784089
ltibia 81.1483
lfoot 23.6154 -12.8591
ltoes 31.4334
798
root -3.49479 14.9916 -6.10374 16.8074 10.5379 -1.27387
lowerback 33.1761 -1.59721 1.09149
upperback 4.78917 -1.62613 -0.351943
thorax -11.7617 -0.754839 -0.32913
lowerneck -11.9788 0.411292 -5.28719
upperneck -23.0537 2.53873 8.56708
head -5.18828 1.3324 3.62311
rclavicle 4.85035e-014 -1.15295e-014
rhumerus -28.8138 -10.5462 -69.0668
rradius 79.701
rwrist 6.2017
rhand -23.3375 26.2149
rfingers 7.12502
rthumb 3.11717 -3.74206
lclavicle 4.85035e-014 -1.15295e-014
lhumerus -12.9782 -0.350744 87.8779
lradius 91.5854
lwrist -44.5324
lhand 3.64051 41.0717
lfingers 7.12502
lthumb 29.0724 68.823
rfemur -56.5596 14.4548 20.5404
rtibia 58.9088
rfoot -12.6401 -15.1006
rtoes -6.19282
lfemur -60.4905 -19.7645 -0.821177
ltibia 81.1458
lfoot 23.3247 -12.8572
ltoes 30.4619
799
root -3.4951 14.9802 -6.10301 16.8362 10.4166 -1.26421
lowerback 33.2686 -1.50365 1.15376
upperback 4.6469 -1.49276 -0.391444
thorax -11.9603 -0.698715 -0.454082
lowerneck -11.8382 0.314302 -5.44158
upperneck -22.8581 2.4134 8.66805
head -5.13858 1.27626 3.67961
rclavicle -1.98785e-015 5.1684e-015
rhumerus -29.1179 -10.6376 -68.8714
rradius 79.7263
rwrist 6.2082
rhand -23.5633 26.1539
rfingers 7.12502
rthumb 2.89914 -3.80611
lclavicle -1.98785e-015 5.1684e-015
lhumerus -13.2781 -0.583261 87.8673
lradius 91.6212
lwrist -44.4081
lhand 3.97955 40.987
lfingers 7.12502
lthumb 29.3962 68.6819
rfemur -56.6398 14.4591 20.5529
rtibia 58.8995
rfoot -12.1323 -15.2415
rtoes -7.85194
lfemur -60.4712 -19.7255 -0.841299
ltibia 81.1708
lfoot 23.1291 -12.6415
ltoes 30.3827
800
root -3.49472 14.981 -6.09921 16.8732 10.3779 -1.17744
lowerback 33.2216 -1.51756 1.13576
upperback 4.66255 -1.52734 -0.464863
thorax -11.9263 -0.714386 -0.510263
lowerneck -12.0167 0.299505 -5.39667
upperneck -22.6221 2.384 8.69319
head -5.03345 1.26318 3.67802
rclavicle -1.31198e-014 -6.75868e-015
rhumerus -29.1611 -10.6646 -68.9175
rradius 79.8334
rwrist 6.26159
rhand -23.7126 26.1934
rfingers 7.12502
rthumb 2.75489 -3.76857
lclavicle -1.31198e-014 -6.75868e-015
lhumerus -13.273 -0.617351 87.7377
lradius 91.6833
lwrist -44.4446
lhand 4.51884 41.3145
lfingers 7.12502
lthumb 29.9109 68.9179
rfemur -56.6394 14.3375 20.524
rtibia 58.8744
rfoot -11.837 -15.2768
rtoes -9.15255
lfemur -60.4422 -19.8307 -0.916828
ltibia 81.1697
lfoot 23.0356 -12.5258
ltoes 30.4945
801
root -3.49378 14.9895 -6.09265 16.7997 10.3305 -1.14769
lowerback 33.2185 -1.58757 1.01789
upperback 4.75986 -1.66101 -0.504594
thorax -11.816 -0.769767 -0.438051
lowerneck -12.2593 0.386705 -5.26078
upperneck -22.4891 2.4908 8.68092
head -4.96134 1.31245 3.6499
rclavicle 9.93923e-015 -3.18055e-015
rhumerus -28.9269 -10.4701 -69.1226
rradius 79.7863
rwrist 6.35835
rhand -23.7977 26.5113
rfingers 7.12502
rthumb 2.67274 -3.45168
lclavicle 9.93923e-015 -3.18055e-015
lhumerus -13.1297 -0.332341 87.534
lradius 91.6718
lwrist -44.5766
lhand 4.68121 41.5524
lfingers 7.12502
lthumb 30.0659 69.1277
rfemur -56.4653 14.3048 20.5169
rtibia 58.8084
rfoot -12.081 -15.0503
rtoes -8.07122
lfemur -60.294 -20.0073 -0.967026
ltibia 81.1743
lfoot 22.9152 -12.3931
ltoes 30.6575
802
root -3.49468 14.9936 -6.09016 16.6755 10.2653 -1.40598
lowerback 33.2983 -1.52306 1.25164
upperback 4.67332 -1.48267 -0.386416
thorax -11.9438 -0.698129 -0.504918
lowerneck -11.804 0.297236 -5.55217
upperneck -22.6262 2.38462 8.71506
head -5.06838 1.26851 3.71044
rclavicle 7.95139e-016 1.35174e-014
rhumerus -29.2154 -10.4533 -68.8142
rradius 79.7999
rwrist 6.31205
rhand -23.7826 26.7699
rfingers 7.12502
rthumb 2.68729 -3.19294
lclavicle 7.95139e-016 1.35174e-014
lhumerus -13.4092 -0.41263 87.7004
lradius 91.6193
lwrist -44.7245
lhand 4.52646 41.4529
lfingers 7.12502
lthumb 29.9182 69.055
rfemur -56.289 14.4111 20.7972
rtibia 58.703
rfoot -12.3267 -14.8383
rtoes -6.43893
lfemur -60.2626 -20.0201 -0.691739
ltibia 81.2605
lfoot 22.91 -12.2639
ltoes 31.2002
803
root -3.49537 14.9928 -6.08905 16.6003 10.2071 -1.6959
lowerback 33.331 -1.59773 1.3116
upperback 4.97731 -1.55501 -0.403383
thorax -11.6163 -0.730595 -0.529628
lowerneck -12.8437 0.406509 -5.07257
upperneck -22.5078 2.5045 8.55009
head -4.87942 1.32488 3.58035
rclavicle -1.55052e-014 -3.97569e-016
rhumerus -28.4052 -10.4875 -69.2587
rradius 79.7194
rwrist 6.29843
rhand -23.6976 26.9761
rfingers 7.12502
rthumb 2.76941 -2.98571
lclavicle -1.55052e-014 -3.97569e-016
lhumerus -12.8943 -0.21596 87.256
lradius 91.6304
lwrist -44.7128
lhand 4.58213 41.6668
lfingers 7.12502
lthumb 29.9713 69.2592
rfemur -56.188 14.4732 21.1364
rtibia 58.6016
rfoot -12.473 -14.6985
rtoes -5.4635
lfemur -60.2784 -19.9351 -0.381471
ltibia 81.3403
lfoot 22.9372 -12.2585
ltoes 31.4146
804
root -3.49504 14.992 -6.08415 16.5381 10.1695 -1.74169
lowerback 33.3907 -1.60544 1.33246
upperback 4.96828 -1.55795 -0.412458
thorax -11.6511 -0.732839 -0.548249
lowerneck -12.6409 0.41127 -5.05129
upperneck -22.687 2.50993 8.5293
head -4.96712 1.31969 3.57067
rclavicle -1.82882e-014 -1.59028e-014
rhumerus -28.446 -10.4516 -69.2495
rradius 79.838
rwrist 6.34373
rhand -23.5046 26.8966
rfingers 7.12502
rthumb 2.95582 -3.06263
lclavicle -1.82882e-014 -1.59028e-014
lhumerus -13.0497 -0.247171 87.1182
lradius 91.7727
lwrist -44.6467
lhand 4.76796 42.0175
lfingers 7.12502
lthumb 30.1486 69.5777
rfemur -56.0601 14.4219 21.2463
rtibia 58.5362
rfoot -12.6495 -14.511
rtoes -5.09121
lfemur -60.1749 -20.0107 -0.351097
ltibia 81.3693
lfoot 22.896 -12.1945
ltoes 31.1196
805
root -3.49343 14.9972 -6.076 16.5399 10.1142 -1.6345
lowerback 33.3143 -1.60828 1.24809
upperback 4.98203 -1.59917 -0.46344
thorax -11.6059 -0.748952 -0.542732
lowerneck -12.4001 0.443941 -5.10131
upperneck -22.9053 2.56991 8.55404
head -5.07778 1.34436 3.58803
rclavicle -1.31198e-014 -3.97569e-016
rhumerus -28.4697 -10.4281 -69.265
rradius 79.9702
rwrist 6.35514
rhand -23.1407 26.4667
rfingers 7.12502
rthumb 3.30724 -3.48744
lclavicle -1.31198e-014 -3.97569e-016
lhumerus -13.1099 -0.179947 87.0011
lradius 91.7577
lwrist -44.6248
lhand 4.6952 41.7936
lfingers 7.12502
lthumb 30.0792 69.3665
rfemur -55.9608 14.3217 21.2038
rtibia 58.4936
rfoot -12.6561 -14.5367
rtoes -6.07128
lfemur -60.0487 -20.1841 -0.485833
ltibia 81.3405
lfoot 22.9375 -11.9831
ltoes 31.1403
806
root -3.49309 15.0011 -6.07049 16.5972 10.0198 -1.64535
lowerback 33.1448 -1.55847 1.22428
upperback 4.89609 -1.54693 -0.444478
thorax -11.633 -0.725875 -0.531829
lowerneck -11.7918 0.4756 -5.16673
upperneck -23.1458 2.60274 8.49902
head -5.25004 1.35081 3.57934
rclavicle -3.97569e-015 2.10712e-014
rhumerus -28.7456 -10.3593 -69.1713
rradius 80.1311
rwrist 6.32357
rhand -22.9404 26.2738
rfingers 7.12502
rthumb 3.50061 -3.67724
lclavicle -3.97569e-015 2.10712e-014
lhumerus -13.3623 -0.118537 86.9897
lradius 91.6747
lwrist -44.6417
lhand 4.543 41.2497
lfingers 7.12502
lthumb 29.934 68.8489
rfemur -55.9705 14.3344 21.2276
rtibia 58.4473
rfoot -12.54 -14.6259
rtoes -6.71247
lfemur -60.0429 -20.2041 -0.488569
ltibia 81.3178
lfoot 22.9442 -11.942
ltoes 31.0297
807
root -3.49514 15.0012 -6.06759 16.6308 9.97842 -1.53782
lowerback 33.1053 -1.57831 1.03225
upperback 5.04329 -1.64156 -0.478576
thorax -11.4499 -0.760936 -0.430783
lowerneck -12.471 0.513425 -4.94582
upperneck -22.773 2.61185 8.35342
head -5.02701 1.36423 3.49436
rclavicle 3.69739e-014 -3.18055e-014
rhumerus -28.313 -10.3706 -69.4143
rradius 80.106
rwrist 6.46835
rhand -22.8546 26.2188
rfingers 7.12502
rthumb 3.58356 -3.73082
lclavicle 3.69739e-014 -3.18055e-014
lhumerus -13.0256 0.120356 86.8455
lradius 91.5104
lwrist -44.5671
lhand 4.24697 40.9212
lfingers 7.12502
lthumb 29.6515 68.571
rfemur -55.9837 14.326 21.1182
rtibia 58.4127
rfoot -12.3649 -14.7302
rtoes -7.02545
lfemur -60.0624 -20.335 -0.566805
ltibia 81.2923
lfoot 22.8297 -11.8316
ltoes 30.7403
808
root -3.49554 15.0049 -6.06338 16.612 9.97351 -1.38674
lowerback 33.1822 -1.62164 0.895397
upperback 5.05399 -1.75414 -0.571713
thorax -11.4704 -0.80729 -0.411846
lowerneck -12.702 0.577263 -4.72251
upperneck -22.5952 2.66119 8.25777
head -4.93723 1.38234 3.4243
rclavicle 2.22639e-014 1.03368e-014
rhumerus -28.2172 -10.2543 -69.5532
rradius 80.0986
rwrist 6.36944
rhand -22.7486 26.0761
rfingers 7.12502
rthumb 3.68584 -3.87178
lclavicle 2.22639e-014 1.03368e-014
lhumerus -13.026 0.231905 86.664
lradius 91.351
lwrist -44.3522
lhand 3.65773 40.5427
lfingers 7.12502
lthumb 29.0889 68.2912
rfemur -55.9058 14.2468 21.0036
rtibia 58.378
rfoot -12.1662 -14.8757
rtoes -7.84864
lfemur -59.9889 -20.6058 -0.676688
ltibia 81.2336
lfoot 22.7966 -11.6207
ltoes 30.768
